<svg width="160" height="137" viewBox="0 0 160 137" fill="none" xmlns="http://www.w3.org/2000/svg">
<path d="M26.2354 29.5009C22.675 29.5009 19.0606 29.5009 16.3633 31.2663C11.8407 34.2263 16.6331 43.1422 19.3214 48.1886C20.5355 50.4678 22.6031 51.4697 25.8938 52.0759C29.1845 52.6822 33.9317 52.6822 36.674 51.7996C39.4162 50.9169 40.0096 49.1515 40.3153 46.4768C40.621 43.802 40.621 40.2713 39.7309 37.864C38.8408 35.4568 37.0606 34.2799 31.63 33.0673" stroke="#1D1A03" stroke-width="29" stroke-linecap="round"/>
<path d="M104.214 14.5009C101.834 14.5009 98.8242 15.7206 95.823 18.7882C92.5955 22.087 93.3985 27.4182 94.2908 31.1049C95.3704 35.5655 100.591 37.2863 105.377 38.2103C108.341 38.7827 112.542 38.5244 114.984 37.3048C117.427 36.0851 118.021 33.6458 118.328 30.8646C118.634 28.0834 118.634 25.0343 117.445 22.2439C116.255 19.4535 113.876 17.0142 111.758 15.7576C109.64 14.5009 107.855 14.5009 106.016 14.5009" stroke="#1D1A03" stroke-width="29" stroke-linecap="round"/>
<path d="M27.4995 116.742C63.1141 125.637 98.9431 122.115 108.222 120.007C118.742 117.617 127.585 107.279 134.45 100.759C135.952 98.9711 137.132 97.2099 138.33 95.4221C139.528 93.6343 140.708 91.8732 145.5 86.5009" stroke="#1D1A03" stroke-width="29" stroke-linecap="round"/>
</svg>
