<svg width="256" height="256" viewBox="0 0 256 256" fill="none" xmlns="http://www.w3.org/2000/svg">

<path d="M76.7359 89C73.1755 89 69.5611 89 66.8638 90.7653C62.3412 93.7253 67.1335 102.641 69.8218 107.688C71.036 109.967 73.1036 110.969 76.3943 111.575C79.685 112.181 84.4322 112.181 87.1745 111.299C89.9167 110.416 90.5101 108.651 90.8158 105.976C91.1215 103.301 91.1215 99.7704 90.2314 97.3631C89.3413 94.9558 87.5611 93.7789 82.1305 92.5664" stroke="#1D1A03" stroke-width="29" stroke-linecap="round"/>
<path d="M154.714 74C152.335 74 149.325 75.2197 146.323 78.2873C143.096 81.5861 143.899 86.9172 144.791 90.6039C145.871 95.0646 151.091 96.7853 155.877 97.7093C158.842 98.2817 163.042 98.0235 165.485 96.8038C167.927 95.5842 168.522 93.1449 168.828 90.3637C169.135 87.5825 169.135 84.5334 167.945 81.7429C166.755 78.9525 164.376 76.5132 162.258 75.2566C160.14 74 158.356 74 156.517 74" stroke="#1D1A03" stroke-width="29" stroke-linecap="round"/>
<path d="M78 176.241C113.615 185.136 149.444 181.614 158.723 179.506C169.242 177.116 178.085 166.778 184.951 160.258C186.453 158.47 187.633 156.709 188.831 154.921C190.028 153.133 191.208 151.372 196 146" stroke="#1D1A03" stroke-width="29" stroke-linecap="round"/>
</svg>
